<svg width="149" height="27" viewBox="0 0 149 27" fill="none" xmlns="http://www.w3.org/2000/svg">
<path d="M5.384 18.74C4.54133 18.74 3.78133 18.5933 3.104 18.3C2.432 18.0067 1.87733 17.588 1.44 17.044C1.008 16.4947 0.733333 15.844 0.616 15.092L2.616 14.788C2.78667 15.4707 3.136 15.9987 3.664 16.372C4.19733 16.7453 4.81067 16.932 5.504 16.932C5.91467 16.932 6.30133 16.868 6.664 16.74C7.02667 16.612 7.32 16.4253 7.544 16.18C7.77333 15.9347 7.888 15.6333 7.888 15.276C7.888 15.116 7.86133 14.9693 7.808 14.836C7.75467 14.6973 7.67467 14.5747 7.568 14.468C7.46667 14.3613 7.33333 14.2653 7.168 14.18C7.008 14.0893 6.82133 14.012 6.608 13.948L3.632 13.068C3.376 12.9933 3.09867 12.8947 2.8 12.772C2.50667 12.644 2.22667 12.4707 1.96 12.252C1.69867 12.028 1.48267 11.7453 1.312 11.404C1.14667 11.0573 1.064 10.6307 1.064 10.124C1.064 9.38267 1.25067 8.76133 1.624 8.26C2.00267 7.75333 2.50933 7.37467 3.144 7.124C3.784 6.87333 4.49333 6.75067 5.272 6.756C6.06133 6.76133 6.76533 6.89733 7.384 7.164C8.00267 7.42533 8.52 7.80667 8.936 8.308C9.352 8.80933 9.64533 9.41467 9.816 10.124L7.744 10.484C7.65867 10.0787 7.49333 9.73467 7.248 9.452C7.008 9.164 6.712 8.94533 6.36 8.796C6.01333 8.64667 5.64267 8.56667 5.248 8.556C4.864 8.55067 4.50667 8.60933 4.176 8.732C3.85067 8.84933 3.58667 9.02 3.384 9.244C3.18667 9.468 3.088 9.72933 3.088 10.028C3.088 10.3107 3.17333 10.5427 3.344 10.724C3.51467 10.9 3.72533 11.0413 3.976 11.148C4.232 11.2493 4.49067 11.3347 4.752 11.404L6.816 11.98C7.09867 12.0547 7.416 12.156 7.768 12.284C8.12 12.412 8.45867 12.5907 8.784 12.82C9.10933 13.0493 9.376 13.3507 9.584 13.724C9.79733 14.0973 9.904 14.572 9.904 15.148C9.904 15.7453 9.77867 16.2707 9.528 16.724C9.28267 17.172 8.94933 17.5453 8.528 17.844C8.10667 18.1427 7.624 18.3667 7.08 18.516C6.54133 18.6653 5.976 18.74 5.384 18.74ZM11.6356 18.5V6.98H19.0756V8.788H13.5636V11.628H18.1156V13.436H13.5636V16.692H19.0756V18.5H11.6356ZM20.995 18.5V6.98H28.435V8.788H22.923V11.628H27.475V13.436H22.923V16.692H28.435V18.5H20.995ZM38.4295 18.74C37.2775 18.74 36.2908 18.4893 35.4695 17.988C34.6482 17.4813 34.0162 16.7773 33.5735 15.876C33.1362 14.9747 32.9175 13.9293 32.9175 12.74C32.9175 11.5507 33.1362 10.5053 33.5735 9.604C34.0162 8.70267 34.6482 8.00133 35.4695 7.5C36.2908 6.99333 37.2775 6.74 38.4295 6.74C39.5815 6.74 40.5682 6.99333 41.3895 7.5C42.2162 8.00133 42.8482 8.70267 43.2855 9.604C43.7282 10.5053 43.9495 11.5507 43.9495 12.74C43.9495 13.9293 43.7282 14.9747 43.2855 15.876C42.8482 16.7773 42.2162 17.4813 41.3895 17.988C40.5682 18.4893 39.5815 18.74 38.4295 18.74ZM38.4295 16.924C39.2028 16.9293 39.8455 16.7587 40.3575 16.412C40.8748 16.0653 41.2615 15.5773 41.5175 14.948C41.7788 14.3187 41.9095 13.5827 41.9095 12.74C41.9095 11.8973 41.7788 11.1667 41.5175 10.548C41.2615 9.924 40.8748 9.43867 40.3575 9.092C39.8455 8.74533 39.2028 8.56667 38.4295 8.556C37.6562 8.55067 37.0135 8.72133 36.5015 9.068C35.9895 9.41467 35.6028 9.90267 35.3415 10.532C35.0855 11.1613 34.9575 11.8973 34.9575 12.74C34.9575 13.5827 35.0855 14.316 35.3415 14.94C35.5975 15.5587 35.9815 16.0413 36.4935 16.388C37.0108 16.7347 37.6562 16.9133 38.4295 16.924ZM45.5419 18.5V6.98H47.4939L52.8379 15.1V6.98H54.7899V18.5H52.8379L47.4939 10.38V18.5H45.5419ZM64.9814 18.74C64.2347 18.74 63.5334 18.6093 62.8774 18.348C62.2267 18.0813 61.6534 17.692 61.1574 17.18C60.6667 16.668 60.2827 16.0413 60.0054 15.3C59.728 14.5533 59.5894 13.7 59.5894 12.74C59.5894 11.4813 59.824 10.4067 60.2934 9.516C60.7627 8.62 61.4054 7.93467 62.2214 7.46C63.0374 6.98 63.9574 6.74 64.9814 6.74C66.4 6.74 67.5227 7.07067 68.3494 7.732C69.1814 8.388 69.744 9.31067 70.0374 10.5L68.0694 10.812C67.8507 10.1293 67.4934 9.58533 66.9974 9.18C66.5014 8.76933 65.8694 8.564 65.1014 8.564C64.328 8.55333 63.6854 8.72133 63.1734 9.068C62.6614 9.41467 62.2747 9.90267 62.0134 10.532C61.7574 11.1613 61.6294 11.8973 61.6294 12.74C61.6294 13.5827 61.7574 14.316 62.0134 14.94C62.2694 15.5587 62.6534 16.0413 63.1654 16.388C63.6827 16.7347 64.328 16.9133 65.1014 16.924C65.6827 16.9293 66.192 16.8253 66.6294 16.612C67.0667 16.3933 67.424 16.0653 67.7014 15.628C67.9787 15.1853 68.1654 14.6333 68.2614 13.972H66.2294V12.46H70.3094C70.32 12.5453 70.328 12.6707 70.3334 12.836C70.3387 13.0013 70.3414 13.1 70.3414 13.132C70.3414 14.22 70.1254 15.188 69.6934 16.036C69.2667 16.8787 68.6534 17.54 67.8534 18.02C67.0534 18.5 66.096 18.74 64.9814 18.74ZM72.1081 18.5V6.98H74.0361V18.5H72.1081ZM79.2005 18.5V8.788H75.4725V6.98H84.8565V8.788H81.1285V18.5H79.2005ZM86.1356 18.5V6.98H88.0636V11.828H93.5196V6.98H95.4396V18.5H93.5196V13.636H88.0636V18.5H86.1356ZM102.323 18.74C101.405 18.74 100.597 18.5533 99.8985 18.18C99.2052 17.8067 98.6612 17.2813 98.2665 16.604C97.8772 15.9267 97.6825 15.132 97.6825 14.22V6.996L99.6345 6.98V14.172C99.6345 14.604 99.7065 14.9907 99.8505 15.332C99.9998 15.6733 100.2 15.964 100.451 16.204C100.701 16.4387 100.989 16.6173 101.315 16.74C101.64 16.8627 101.976 16.924 102.323 16.924C102.68 16.924 103.019 16.8627 103.339 16.74C103.664 16.612 103.952 16.4307 104.203 16.196C104.453 15.956 104.651 15.6653 104.795 15.324C104.939 14.9827 105.01 14.5987 105.01 14.172V6.98H106.963V14.22C106.963 15.132 106.765 15.9267 106.371 16.604C105.981 17.2813 105.437 17.8067 104.739 18.18C104.045 18.5533 103.24 18.74 102.323 18.74ZM109.198 18.5V6.98H113.766C114.545 6.98 115.182 7.13733 115.678 7.452C116.179 7.76133 116.55 8.15867 116.79 8.644C117.035 9.12933 117.158 9.63067 117.158 10.148C117.158 10.7827 117.006 11.3213 116.702 11.764C116.403 12.2067 115.995 12.5053 115.478 12.66V12.26C116.203 12.4253 116.753 12.7693 117.126 13.292C117.505 13.8147 117.694 14.4093 117.694 15.076C117.694 15.7587 117.563 16.356 117.302 16.868C117.041 17.38 116.651 17.78 116.134 18.068C115.622 18.356 114.987 18.5 114.23 18.5H109.198ZM111.15 16.684H113.99C114.326 16.684 114.627 16.6173 114.894 16.484C115.161 16.3453 115.369 16.1533 115.518 15.908C115.673 15.6573 115.75 15.3613 115.75 15.02C115.75 14.7107 115.683 14.4333 115.55 14.188C115.417 13.9427 115.222 13.748 114.966 13.604C114.71 13.4547 114.403 13.38 114.046 13.38H111.15V16.684ZM111.15 11.58H113.742C114.019 11.58 114.267 11.5267 114.486 11.42C114.705 11.3133 114.878 11.156 115.006 10.948C115.134 10.74 115.198 10.484 115.198 10.18C115.198 9.78 115.07 9.44667 114.814 9.18C114.558 8.91333 114.201 8.78 113.742 8.78H111.15V11.58Z" fill="#D3E97A"/>
<path fill-rule="evenodd" clip-rule="evenodd" d="M136.028 2.66675C130.06 2.66675 125.223 7.50383 125.223 13.4719C125.223 18.2451 128.318 22.2957 132.612 23.7257C133.153 23.8232 133.348 23.4906 133.348 23.2046C133.348 22.9478 133.339 22.2675 133.336 21.3673C130.33 22.0194 129.695 19.9178 129.695 19.9178C129.205 18.6698 128.496 18.3372 128.496 18.3372C127.515 17.6666 128.571 17.6818 128.571 17.6818C129.656 17.7576 130.225 18.7954 130.225 18.7954C131.189 20.4464 132.755 19.9698 133.369 19.6935C133.467 18.9948 133.749 18.5181 134.057 18.2483C131.658 17.9764 129.136 17.0491 129.136 12.9075C129.136 11.7299 129.557 10.7636 130.245 10.0096C130.136 9.7355 129.762 8.63592 130.353 7.14958C130.353 7.14958 131.259 6.85817 133.323 8.25567C134.204 8.01589 135.114 7.8935 136.027 7.89167C136.941 7.89315 137.85 8.01554 138.731 8.25567C140.796 6.85708 141.702 7.14958 141.702 7.14958C142.292 8.63592 141.922 9.7355 141.809 10.0096C142.502 10.7636 142.918 11.7288 142.918 12.9075C142.918 17.0599 140.394 17.9721 137.987 18.2397C138.371 18.5733 138.718 19.232 138.718 20.2395C138.718 21.6847 138.705 22.8503 138.705 23.2046C138.705 23.4938 138.898 23.8297 139.449 23.7235C143.742 22.2913 146.833 18.244 146.833 13.4719C146.833 7.50383 141.996 2.66675 136.028 2.66675Z" fill="#D3E97A"/>
</svg>
