<svg width="54" height="54" viewBox="0 0 54 54" fill="none" xmlns="http://www.w3.org/2000/svg">
<rect width="54" height="54" rx="27" fill="#222222"/>
<path fill-rule="evenodd" clip-rule="evenodd" d="M27.0281 16.1667C21.06 16.1667 16.2229 21.0038 16.2229 26.9719C16.2229 31.7451 19.318 35.7957 23.6123 37.2257C24.1529 37.3232 24.3479 36.9906 24.3479 36.7046C24.3479 36.4478 24.3392 35.7675 24.336 34.8673C21.3297 35.5194 20.6949 33.4178 20.6949 33.4178C20.2052 32.1698 19.4957 31.8372 19.4957 31.8372C18.5152 31.1666 19.5704 31.1818 19.5704 31.1818C20.6559 31.2576 21.2247 32.2954 21.2247 32.2954C22.1888 33.9464 23.7553 33.4698 24.3685 33.1935C24.4671 32.4948 24.7487 32.0181 25.0564 31.7483C22.6579 31.4764 20.1359 30.5491 20.1359 26.4075C20.1359 25.2299 20.5573 24.2636 21.2452 23.5096C21.1358 23.2355 20.7621 22.1359 21.3525 20.6496C21.3525 20.6496 22.2592 20.3582 24.323 21.7557C25.2044 21.5159 26.1136 21.3935 27.027 21.3917C27.9404 21.3931 28.8497 21.5155 29.731 21.7557C31.7958 20.3571 32.7015 20.6496 32.7015 20.6496C33.2919 22.1359 32.9214 23.2355 32.8087 23.5096C33.5021 24.2636 33.9181 25.2288 33.9181 26.4075C33.9181 30.5599 31.3939 31.4721 28.9867 31.7397C29.3713 32.0733 29.718 32.732 29.718 33.7395C29.718 35.1847 29.705 36.3503 29.705 36.7046C29.705 36.9938 29.8978 37.3297 30.4492 37.2235C34.7414 35.7913 37.8332 31.744 37.8332 26.9719C37.8332 21.0038 32.9962 16.1667 27.0281 16.1667Z" fill="#D3E97A"/>
</svg>
