<svg width="178" height="32" viewBox="0 0 178 32" fill="none" xmlns="http://www.w3.org/2000/svg">
<path d="M1.12 18.5V6.98H5.88C5.992 6.98 6.136 6.98533 6.312 6.996C6.488 7.00133 6.65067 7.01733 6.8 7.044C7.46667 7.14533 8.016 7.36667 8.448 7.708C8.88533 8.04933 9.208 8.48133 9.416 9.004C9.62933 9.52133 9.736 10.0973 9.736 10.732C9.736 11.3613 9.62933 11.9373 9.416 12.46C9.20267 12.9773 8.87733 13.4067 8.44 13.748C8.008 14.0893 7.46133 14.3107 6.8 14.412C6.65067 14.4333 6.48533 14.4493 6.304 14.46C6.128 14.4707 5.98667 14.476 5.88 14.476H3.048V18.5H1.12ZM3.048 12.676H5.8C5.90667 12.676 6.02667 12.6707 6.16 12.66C6.29333 12.6493 6.416 12.628 6.528 12.596C6.848 12.516 7.09867 12.3747 7.28 12.172C7.46667 11.9693 7.59733 11.74 7.672 11.484C7.752 11.228 7.792 10.9773 7.792 10.732C7.792 10.4867 7.752 10.236 7.672 9.98C7.59733 9.71867 7.46667 9.48667 7.28 9.284C7.09867 9.08133 6.848 8.94 6.528 8.86C6.416 8.828 6.29333 8.80933 6.16 8.804C6.02667 8.79333 5.90667 8.788 5.8 8.788H3.048V12.676ZM11.3388 18.5V6.98H16.0988C16.2108 6.98 16.3548 6.98533 16.5308 6.996C16.7068 7.00133 16.8694 7.01733 17.0188 7.044C17.6854 7.14533 18.2348 7.36667 18.6667 7.708C19.1041 8.04933 19.4268 8.48133 19.6348 9.004C19.8481 9.52133 19.9548 10.0973 19.9548 10.732C19.9548 11.6707 19.7174 12.4787 19.2428 13.156C18.7681 13.828 18.0401 14.244 17.0588 14.404L16.2348 14.476H13.2668V18.5H11.3388ZM17.9548 18.5L15.6828 13.812L17.6428 13.38L20.1388 18.5H17.9548ZM13.2668 12.676H16.0188C16.1254 12.676 16.2454 12.6707 16.3788 12.66C16.5121 12.6493 16.6348 12.628 16.7468 12.596C17.0668 12.516 17.3174 12.3747 17.4988 12.172C17.6854 11.9693 17.8161 11.74 17.8908 11.484C17.9708 11.228 18.0108 10.9773 18.0108 10.732C18.0108 10.4867 17.9708 10.236 17.8908 9.98C17.8161 9.71867 17.6854 9.48667 17.4988 9.284C17.3174 9.08133 17.0668 8.94 16.7468 8.86C16.6348 8.828 16.5121 8.80933 16.3788 8.804C16.2454 8.79333 16.1254 8.788 16.0188 8.788H13.2668V12.676ZM26.7733 18.74C25.6213 18.74 24.6346 18.4893 23.8133 17.988C22.9919 17.4813 22.3599 16.7773 21.9173 15.876C21.4799 14.9747 21.2613 13.9293 21.2613 12.74C21.2613 11.5507 21.4799 10.5053 21.9173 9.604C22.3599 8.70267 22.9919 8.00133 23.8133 7.5C24.6346 6.99333 25.6213 6.74 26.7733 6.74C27.9253 6.74 28.9119 6.99333 29.7333 7.5C30.5599 8.00133 31.1919 8.70267 31.6293 9.604C32.0719 10.5053 32.2933 11.5507 32.2933 12.74C32.2933 13.9293 32.0719 14.9747 31.6293 15.876C31.1919 16.7773 30.5599 17.4813 29.7333 17.988C28.9119 18.4893 27.9253 18.74 26.7733 18.74ZM26.7733 16.924C27.5466 16.9293 28.1893 16.7587 28.7013 16.412C29.2186 16.0653 29.6053 15.5773 29.8613 14.948C30.1226 14.3187 30.2533 13.5827 30.2533 12.74C30.2533 11.8973 30.1226 11.1667 29.8613 10.548C29.6053 9.924 29.2186 9.43867 28.7013 9.092C28.1893 8.74533 27.5466 8.56667 26.7733 8.556C25.9999 8.55067 25.3573 8.72133 24.8453 9.068C24.3333 9.41467 23.9466 9.90267 23.6853 10.532C23.4293 11.1613 23.3013 11.8973 23.3013 12.74C23.3013 13.5827 23.4293 14.316 23.6853 14.94C23.9413 15.5587 24.3253 16.0413 24.8373 16.388C25.3546 16.7347 25.9999 16.9133 26.7733 16.924ZM33.8856 18.5V6.98H37.5576C37.6536 6.98 37.843 6.98267 38.1256 6.988C38.4136 6.99333 38.691 7.012 38.9576 7.044C39.8696 7.16133 40.6403 7.48667 41.2696 8.02C41.9043 8.548 42.3843 9.22267 42.7096 10.044C43.035 10.8653 43.1976 11.764 43.1976 12.74C43.1976 13.716 43.035 14.6147 42.7096 15.436C42.3843 16.2573 41.9043 16.9347 41.2696 17.468C40.6403 17.996 39.8696 18.3187 38.9576 18.436C38.6963 18.468 38.4216 18.4867 38.1336 18.492C37.8456 18.4973 37.6536 18.5 37.5576 18.5H33.8856ZM35.8456 16.684H37.5576C37.7176 16.684 37.9203 16.6787 38.1656 16.668C38.4163 16.6573 38.6376 16.6333 38.8296 16.596C39.3736 16.4947 39.8163 16.252 40.1576 15.868C40.499 15.484 40.7496 15.0173 40.9096 14.468C41.075 13.9187 41.1576 13.3427 41.1576 12.74C41.1576 12.116 41.075 11.5293 40.9096 10.98C40.7443 10.4307 40.4883 9.96933 40.1416 9.596C39.8003 9.22267 39.363 8.98533 38.8296 8.884C38.6376 8.84133 38.4163 8.81733 38.1656 8.812C37.9203 8.80133 37.7176 8.796 37.5576 8.796H35.8456V16.684ZM49.7288 18.74C48.8114 18.74 48.0034 18.5533 47.3048 18.18C46.6114 17.8067 46.0674 17.2813 45.6728 16.604C45.2834 15.9267 45.0888 15.132 45.0888 14.22V6.996L47.0408 6.98V14.172C47.0408 14.604 47.1128 14.9907 47.2568 15.332C47.4061 15.6733 47.6061 15.964 47.8568 16.204C48.1074 16.4387 48.3954 16.6173 48.7208 16.74C49.0461 16.8627 49.3821 16.924 49.7288 16.924C50.0861 16.924 50.4248 16.8627 50.7448 16.74C51.0701 16.612 51.3581 16.4307 51.6088 16.196C51.8594 15.956 52.0568 15.6653 52.2008 15.324C52.3448 14.9827 52.4167 14.5987 52.4167 14.172V6.98H54.3688V14.22C54.3688 15.132 54.1714 15.9267 53.7768 16.604C53.3874 17.2813 52.8434 17.8067 52.1448 18.18C51.4514 18.5533 50.6461 18.74 49.7288 18.74ZM61.4764 18.74C60.3244 18.74 59.3377 18.4893 58.5164 17.988C57.695 17.4813 57.063 16.7773 56.6204 15.876C56.183 14.9747 55.9644 13.9293 55.9644 12.74C55.9644 11.5507 56.183 10.5053 56.6204 9.604C57.063 8.70267 57.695 8.00133 58.5164 7.5C59.3377 6.99333 60.3244 6.74 61.4764 6.74C62.8044 6.74 63.911 7.07333 64.7964 7.74C65.6817 8.40133 66.303 9.29467 66.6604 10.42L64.7164 10.956C64.4924 10.204 64.111 9.61733 63.5724 9.196C63.0337 8.76933 62.335 8.556 61.4764 8.556C60.703 8.556 60.0577 8.72933 59.5404 9.076C59.0284 9.42267 58.6417 9.91067 58.3804 10.54C58.1244 11.164 57.9937 11.8973 57.9884 12.74C57.9884 13.5827 58.1164 14.3187 58.3724 14.948C58.6337 15.572 59.023 16.0573 59.5404 16.404C60.0577 16.7507 60.703 16.924 61.4764 16.924C62.335 16.924 63.0337 16.7107 63.5724 16.284C64.111 15.8573 64.4924 15.2707 64.7164 14.524L66.6604 15.06C66.303 16.1853 65.6817 17.0813 64.7964 17.748C63.911 18.4093 62.8044 18.74 61.4764 18.74ZM71.1849 18.5V8.788H67.4569V6.98H76.8409V8.788H73.1129V18.5H71.1849ZM78.28 18.5V6.98H80.208V18.5H78.28ZM87.4764 18.74C86.3244 18.74 85.3377 18.4893 84.5164 17.988C83.695 17.4813 83.063 16.7773 82.6204 15.876C82.183 14.9747 81.9644 13.9293 81.9644 12.74C81.9644 11.5507 82.183 10.5053 82.6204 9.604C83.063 8.70267 83.695 8.00133 84.5164 7.5C85.3377 6.99333 86.3244 6.74 87.4764 6.74C88.6284 6.74 89.615 6.99333 90.4364 7.5C91.263 8.00133 91.895 8.70267 92.3324 9.604C92.775 10.5053 92.9964 11.5507 92.9964 12.74C92.9964 13.9293 92.775 14.9747 92.3324 15.876C91.895 16.7773 91.263 17.4813 90.4364 17.988C89.615 18.4893 88.6284 18.74 87.4764 18.74ZM87.4764 16.924C88.2497 16.9293 88.8924 16.7587 89.4044 16.412C89.9217 16.0653 90.3084 15.5773 90.5644 14.948C90.8257 14.3187 90.9564 13.5827 90.9564 12.74C90.9564 11.8973 90.8257 11.1667 90.5644 10.548C90.3084 9.924 89.9217 9.43867 89.4044 9.092C88.8924 8.74533 88.2497 8.56667 87.4764 8.556C86.703 8.55067 86.0604 8.72133 85.5484 9.068C85.0364 9.41467 84.6497 9.90267 84.3884 10.532C84.1324 11.1613 84.0044 11.8973 84.0044 12.74C84.0044 13.5827 84.1324 14.316 84.3884 14.94C84.6444 15.5587 85.0284 16.0413 85.5404 16.388C86.0577 16.7347 86.703 16.9133 87.4764 16.924ZM94.5888 18.5V6.98H96.5408L101.885 15.1V6.98H103.837V18.5H101.885L96.5408 10.38V18.5H94.5888ZM109.276 18.5V6.98H114.036C114.148 6.98 114.292 6.98533 114.468 6.996C114.644 7.00133 114.807 7.01733 114.956 7.044C115.623 7.14533 116.172 7.36667 116.604 7.708C117.042 8.04933 117.364 8.48133 117.572 9.004C117.786 9.52133 117.892 10.0973 117.892 10.732C117.892 11.3613 117.786 11.9373 117.572 12.46C117.359 12.9773 117.034 13.4067 116.596 13.748C116.164 14.0893 115.618 14.3107 114.956 14.412C114.807 14.4333 114.642 14.4493 114.46 14.46C114.284 14.4707 114.143 14.476 114.036 14.476H111.204V18.5H109.276ZM111.204 12.676H113.956C114.063 12.676 114.183 12.6707 114.316 12.66C114.45 12.6493 114.572 12.628 114.684 12.596C115.004 12.516 115.255 12.3747 115.436 12.172C115.623 11.9693 115.754 11.74 115.828 11.484C115.908 11.228 115.948 10.9773 115.948 10.732C115.948 10.4867 115.908 10.236 115.828 9.98C115.754 9.71867 115.623 9.48667 115.436 9.284C115.255 9.08133 115.004 8.94 114.684 8.86C114.572 8.828 114.45 8.80933 114.316 8.804C114.183 8.79333 114.063 8.788 113.956 8.788H111.204V12.676ZM117.898 18.5L121.53 6.98H124.354L127.986 18.5H126.002L122.706 8.164H123.138L119.882 18.5H117.898ZM119.922 16.004V14.204H125.97V16.004H119.922ZM133.872 18.74C133.125 18.74 132.424 18.6093 131.768 18.348C131.117 18.0813 130.544 17.692 130.048 17.18C129.557 16.668 129.173 16.0413 128.896 15.3C128.619 14.5533 128.48 13.7 128.48 12.74C128.48 11.4813 128.715 10.4067 129.184 9.516C129.653 8.62 130.296 7.93467 131.112 7.46C131.928 6.98 132.848 6.74 133.872 6.74C135.291 6.74 136.413 7.07067 137.24 7.732C138.072 8.388 138.635 9.31067 138.928 10.5L136.96 10.812C136.741 10.1293 136.384 9.58533 135.888 9.18C135.392 8.76933 134.76 8.564 133.992 8.564C133.219 8.55333 132.576 8.72133 132.064 9.068C131.552 9.41467 131.165 9.90267 130.904 10.532C130.648 11.1613 130.52 11.8973 130.52 12.74C130.52 13.5827 130.648 14.316 130.904 14.94C131.16 15.5587 131.544 16.0413 132.056 16.388C132.573 16.7347 133.219 16.9133 133.992 16.924C134.573 16.9293 135.083 16.8253 135.52 16.612C135.957 16.3933 136.315 16.0653 136.592 15.628C136.869 15.1853 137.056 14.6333 137.152 13.972H135.12V12.46H139.2C139.211 12.5453 139.219 12.6707 139.224 12.836C139.229 13.0013 139.232 13.1 139.232 13.132C139.232 14.22 139.016 15.188 138.584 16.036C138.157 16.8787 137.544 17.54 136.744 18.02C135.944 18.5 134.987 18.74 133.872 18.74ZM140.839 18.5V6.98H148.279V8.788H142.767V11.628H147.319V13.436H142.767V16.692H148.279V18.5H140.839Z" fill="#D3E97A"/>
<g clip-path="url(#clip0_204_1174)">
<path d="M159.99 19.7176L170.304 9.40369V16.8891L172.303 16.8891L172.303 5.98978L161.404 5.98978L161.404 7.98948L168.889 7.98948L158.575 18.3033L159.99 19.7176Z" fill="#D3E97A"/>
</g>
<path d="M0 29.5L178 30.5289" stroke="#D3E97A" stroke-width="2"/>
<defs>
<clipPath id="clip0_204_1174">
<rect width="24" height="24" fill="white" transform="translate(154 0.5)"/>
</clipPath>
</defs>
</svg>
