<svg width="54" height="54" viewBox="0 0 54 54" fill="none" xmlns="http://www.w3.org/2000/svg">
<rect width="54" height="54" rx="27" fill="#222222"/>
<path d="M19.3982 21.7968C20.7073 21.7968 21.7685 20.7356 21.7685 19.4265C21.7685 18.1174 20.7073 17.0562 19.3982 17.0562C18.0891 17.0562 17.0278 18.1174 17.0278 19.4265C17.0278 20.7356 18.0891 21.7968 19.3982 21.7968Z" fill="#D3E97A"/>
<path d="M24.0069 23.5928V36.7434H28.0899V30.2402C28.0899 28.5242 28.4128 26.8623 30.5404 26.8623C32.6389 26.8623 32.6649 28.8242 32.6649 30.3485V36.7445H36.7501V29.5327C36.7501 25.9902 35.9874 23.2678 31.8469 23.2678C29.859 23.2678 28.5265 24.3587 27.9816 25.3912H27.9264V23.5928H24.0069ZM17.353 23.5928H21.4426V36.7434H17.353V23.5928Z" fill="#D3E97A"/>
</svg>
